# xmcd
#
# Track frame offsets: 
#        150
#        11774
#        24297
#        34446
#        48158
#        58818
#        68702
#        79274
#        87659
#        100610
#        112933
#        123163
#        133005
#        143547
#        155197
#        166376
#        178157
#        188588
#        198440
#        210512
#
# Disc length: 2972 seconds
#
# Revision: 1
# Processed by: cddbd v1.5.2PL0 Copyright (c) Steve Scherf et al.
# Submitted via: ExactAudioCopy v1.0b1
#
DISCID=110b9a14
DTITLE=The Jive Five - The Complete Recordings
DYEAR=2000
DGENRE=R&B
TTITLE0=My True Story (mono)
TTITLE1=What Time Is It? (mono)
TTITLE2=Do You Hear Wedding Bells? (mono)
TTITLE3=Begging You Please (mono)
TTITLE4=Never Never Never (mono)
TTITLE5=Johnny Never Knew (mono)
TTITLE6=These Golden Rings (mono)
TTITLE7=I Don't Want To Be Without You Baby (mono)
TTITLE8=Hully Gully Callin' Time (stereo)
TTITLE9=No Not Again (mono)
TTITLE10=The Girl With The Wind In Her Hair (mono)
TTITLE11=Rain (mono)
TTITLE12=You Know What I Would Do (mono)
TTITLE13=Lily Marlane (mono)
TTITLE14=People From Another World (mono)
TTITLE15=Hurry Back (mono)
TTITLE16=She's My Girl (mono)
TTITLE17=When I Was Single (mono)
TTITLE18=Never Never Never (stereo)
TTITLE19=My True Story (stereo)
EXTD=
EXTT0=
EXTT1=
EXTT2=
EXTT3=
EXTT4=
EXTT5=
EXTT6=
EXTT7=
EXTT8=
EXTT9=
EXTT10=
EXTT11=
EXTT12=
EXTT13=
EXTT14=
EXTT15=
EXTT16=
EXTT17=
EXTT18=
EXTT19=
PLAYORDER=
